<svg width="23" height="23" viewBox="0 0 23 23" fill="none" xmlns="http://www.w3.org/2000/svg">
<path fill-rule="evenodd" clip-rule="evenodd" d="M9.6601 17.8181H3.62164C3.22489 17.8181 2.90289 17.4961 2.90289 17.0994C2.90289 16.7026 3.22489 16.3806 3.62164 16.3806H9.6601C10.0569 16.3806 10.3789 16.7026 10.3789 17.0994C10.3789 17.4961 10.0569 17.8181 9.6601 17.8181Z" fill="white"/>
<path fill-rule="evenodd" clip-rule="evenodd" d="M18.3913 8.52954H12.3538C11.957 8.52954 11.635 8.20754 11.635 7.81079C11.635 7.41404 11.957 7.09204 12.3538 7.09204H18.3913C18.788 7.09204 19.11 7.41404 19.11 7.81079C19.11 8.20754 18.788 8.52954 18.3913 8.52954Z" fill="white"/>
<mask id="mask0_48_47" style="mask-type:alpha" maskUnits="userSpaceOnUse" x="2" y="4" width="7" height="7">
<path fill-rule="evenodd" clip-rule="evenodd" d="M2.875 4.79205H8.84139V10.7257H2.875V4.79205Z" fill="white"/>
</mask>
<g mask="url(#mask0_48_47)">
<path fill-rule="evenodd" clip-rule="evenodd" d="M5.85809 6.22916C5.00614 6.22916 4.3123 6.91532 4.3123 7.75962C4.3123 8.60295 5.00614 9.28816 5.85809 9.28816C6.71101 9.28816 7.40389 8.60295 7.40389 7.75962C7.40389 6.91532 6.71101 6.22916 5.85809 6.22916ZM5.85809 10.7257C4.21359 10.7257 2.8748 9.39549 2.8748 7.75962C2.8748 6.12374 4.21359 4.79166 5.85809 4.79166C7.50355 4.79166 8.84138 6.12374 8.84138 7.75962C8.84138 9.39549 7.50355 10.7257 5.85809 10.7257Z" fill="white"/>
</g>
<path fill-rule="evenodd" clip-rule="evenodd" d="M16.6632 15.5327C15.8103 15.5327 15.1165 16.2189 15.1165 17.0622C15.1165 17.9065 15.8103 18.5917 16.6632 18.5917C17.5152 18.5917 18.208 17.9065 18.208 17.0622C18.208 16.2189 17.5152 15.5327 16.6632 15.5327ZM16.6632 20.0292C15.0177 20.0292 13.679 18.6981 13.679 17.0622C13.679 15.4263 15.0177 14.0952 16.6632 14.0952C18.3077 14.0952 19.6455 15.4263 19.6455 17.0622C19.6455 18.6981 18.3077 20.0292 16.6632 20.0292Z" fill="white"/>
</svg>
