<svg width="18" height="18" viewBox="0 0 18 18" fill="none" xmlns="http://www.w3.org/2000/svg">
<path d="M8.75 7.54744C9.16421 7.54744 9.5 7.87098 9.5 8.27007V13.0876C9.5 13.4867 9.16421 13.8102 8.75 13.8102C8.33579 13.8102 8 13.4867 8 13.0876V8.27007C8 7.87098 8.33579 7.54744 8.75 7.54744Z" fill="#DCA73C"/>
<path d="M8.75 5.86131C9.30228 5.86131 9.75 5.42994 9.75 4.89781C9.75 4.36568 9.30228 3.93431 8.75 3.93431C8.19772 3.93431 7.75 4.36568 7.75 4.89781C7.75 5.42994 8.19772 5.86131 8.75 5.86131Z" fill="#DCA73C"/>
<path fill-rule="evenodd" clip-rule="evenodd" d="M0 8.75182C0 4.0957 3.91751 0.321167 8.75 0.321167C13.5825 0.321167 17.5 4.0957 17.5 8.75182C17.5 13.4079 13.5825 17.1825 8.75 17.1825C3.91751 17.1825 0 13.4079 0 8.75182ZM8.75 1.76642C4.74594 1.76642 1.5 4.89389 1.5 8.75182C1.5 12.6098 4.74594 15.7372 8.75 15.7372C12.7541 15.7372 16 12.6098 16 8.75182C16 4.89389 12.7541 1.76642 8.75 1.76642Z" fill="#DCA73C"/>
</svg>
