<svg width="141" height="208" viewBox="0 0 141 208" fill="none" xmlns="http://www.w3.org/2000/svg">
<path d="M22.15 159C20.85 159 19.75 158.55 18.85 157.65C17.95 156.75 17.5 155.65 17.5 154.35V58.65C17.5 57.35 17.95 56.25 18.85 55.35C19.75 54.45 20.85 54 22.15 54H118C119.3 54 120.4 54.45 121.3 55.35C122.2 56.25 122.65 57.35 122.65 58.65L122.5 154.35C122.5 155.65 122.05 156.75 121.15 157.65C120.25 158.55 119.15 159 117.85 159H106.3C105 159 103.9 158.55 103 157.65C102.1 156.75 101.65 155.65 101.65 154.35V142.65C101.65 141.35 101.2 140.25 100.3 139.35C99.4 138.45 98.3 138 97 138H85.3C84 138 82.9 138.45 82 139.35C81.1 140.25 80.65 141.35 80.65 142.65V154.35C80.65 155.65 80.2 156.75 79.3 157.65C78.4 158.55 77.3 159 76 159H64.3C63 159 61.9 158.55 61 157.65C60.1 156.75 59.65 155.65 59.65 154.35V142.65C59.65 141.35 59.2 140.25 58.3 139.35C57.4 138.45 56.3 138 55 138H43.3C42 138 40.9 138.45 40 139.35C39.1 140.25 38.65 141.35 38.65 142.65V154.35C38.65 155.65 38.2 156.75 37.3 157.65C36.4 158.55 35.3 159 34 159H22.15Z" fill="url(#paint0_linear_94_186)"/>
<path d="M19.184 202V186.402H15.048L10.472 197.666L5.786 186.402H1.782V202H4.686V191.154L9.174 202H11.704L16.192 191.066V202H19.184ZM27.3283 199.668C25.8983 199.668 24.5783 198.612 24.5783 196.588C24.5783 194.542 25.8983 193.508 27.3283 193.508C28.7583 193.508 30.0783 194.542 30.0783 196.588C30.0783 198.634 28.7583 199.668 27.3283 199.668ZM27.3283 190.846C24.0943 190.846 21.6523 193.244 21.6523 196.588C21.6523 199.91 24.0943 202.33 27.3283 202.33C30.5623 202.33 33.0043 199.91 33.0043 196.588C33.0043 193.244 30.5623 190.846 27.3283 190.846ZM41.914 191.132C41.694 191.11 41.474 191.088 41.232 191.088C40.308 191.088 38.812 191.352 38.152 192.782V191.176H35.314V202H38.24V197.05C38.24 194.718 39.538 193.992 41.034 193.992C41.298 193.992 41.584 194.014 41.914 194.08V191.132ZM46.8982 206.18V200.944C47.4262 201.67 48.5262 202.264 50.0222 202.264C53.0802 202.264 55.1262 199.844 55.1262 196.566C55.1262 193.354 53.3002 190.934 50.1322 190.934C48.5042 190.934 47.2942 191.66 46.8102 192.496V191.176H43.9722V206.18H46.8982ZM52.2442 196.588C52.2442 198.524 51.0562 199.646 49.5602 199.646C48.0642 199.646 46.8542 198.502 46.8542 196.588C46.8542 194.674 48.0642 193.552 49.5602 193.552C51.0562 193.552 52.2442 194.674 52.2442 196.588ZM60.3689 195.642C60.4349 194.454 61.1609 193.53 62.3929 193.53C63.8009 193.53 64.3949 194.476 64.3949 195.686V202H67.3209V195.18C67.3209 192.804 66.0449 190.89 63.2949 190.89C62.2609 190.89 61.0729 191.242 60.3689 192.078V186.072H57.4429V202H60.3689V195.642ZM90.5761 197.182L87.1001 186.402H83.9541L80.5001 197.138L77.6401 186.402H74.4281L78.7621 202H81.9301L85.4941 190.89L89.0581 202H92.1821L96.4941 186.402H93.3921L90.5761 197.182ZM97.0016 199.052C97.0016 200.746 98.4096 202.308 100.72 202.308C102.326 202.308 103.36 201.56 103.91 200.702C103.91 201.12 103.954 201.714 104.02 202H106.704C106.638 201.626 106.572 200.856 106.572 200.284V194.96C106.572 192.782 105.296 190.846 101.864 190.846C98.9596 190.846 97.3976 192.716 97.2216 194.41L99.8176 194.96C99.9056 194.014 100.61 193.2 101.886 193.2C103.118 193.2 103.712 193.838 103.712 194.608C103.712 194.982 103.514 195.29 102.898 195.378L100.236 195.774C98.4316 196.038 97.0016 197.116 97.0016 199.052ZM101.336 200.13C100.39 200.13 99.9276 199.514 99.9276 198.876C99.9276 198.04 100.522 197.622 101.27 197.512L103.712 197.138V197.622C103.712 199.536 102.568 200.13 101.336 200.13ZM112.447 202V186.072H109.521V202H112.447ZM118.506 202V186.072H115.58V202H118.506ZM123.772 195.356C123.838 194.366 124.674 193.222 126.192 193.222C127.864 193.222 128.568 194.278 128.612 195.356H123.772ZM128.898 198.172C128.546 199.14 127.798 199.822 126.434 199.822C124.982 199.822 123.772 198.788 123.706 197.358H131.45C131.45 197.314 131.494 196.874 131.494 196.456C131.494 192.98 129.492 190.846 126.148 190.846C123.376 190.846 120.824 193.09 120.824 196.544C120.824 200.196 123.442 202.33 126.412 202.33C129.074 202.33 130.79 200.768 131.34 198.898L128.898 198.172ZM137.406 187.942H134.766V189.46C134.766 190.428 134.238 191.176 133.094 191.176H132.544V193.772H134.502V198.81C134.502 200.9 135.822 202.154 137.934 202.154C138.792 202.154 139.32 202 139.584 201.89V199.47C139.43 199.514 139.034 199.558 138.682 199.558C137.846 199.558 137.406 199.25 137.406 198.304V193.772H139.584V191.176H137.406V187.942Z" fill="white"/>
<defs>
<linearGradient id="paint0_linear_94_186" x1="70" y1="44" x2="70.5" y2="180" gradientUnits="userSpaceOnUse">
<stop stop-color="#8B50F5"/>
<stop offset="1" stop-color="#50D7F5" stop-opacity="0"/>
</linearGradient>
</defs>
</svg>
