<svg width="414" height="271" viewBox="0 0 414 271" fill="none" xmlns="http://www.w3.org/2000/svg">
<path d="M414 30.6314L145.56 82.619L304.366 82.619L6.24657e-06 141.779" stroke="url(#paint0_linear_2_1406)"/>
<path d="M414 35.8203L145.56 87.808L304.366 87.808L1.25083e-06 146.968" stroke="url(#paint1_linear_2_1406)"/>
<path d="M414 41.0093L145.56 92.9969L304.366 92.9969L3.86521e-06 152.157" stroke="url(#paint2_linear_2_1406)"/>
<path d="M414 46.1982L145.56 98.1859L304.366 98.1859L3.86521e-06 157.345" stroke="url(#paint3_linear_2_1406)"/>
<path d="M414 51.3872L145.56 103.375L304.366 103.375L6.01355e-06 162.534" stroke="url(#paint4_linear_2_1406)"/>
<path d="M414 56.5761L145.56 108.564L304.366 108.564L3.39916e-06 167.723" stroke="url(#paint5_linear_2_1406)"/>
<path d="M414 61.7651L145.56 113.753L304.366 113.753L3.86521e-06 172.912" stroke="url(#paint6_linear_2_1406)"/>
<path d="M414 66.954L145.56 118.942L304.366 118.942L4.09824e-06 178.101" stroke="url(#paint7_linear_2_1406)"/>
<path d="M414 72.1429L145.56 124.131L304.366 124.131L3.39916e-06 183.29" stroke="url(#paint8_linear_2_1406)"/>
<path d="M414 77.3319L145.56 129.32L304.366 129.32L6.24657e-06 188.479" stroke="url(#paint9_linear_2_1406)"/>
<path d="M414 82.5208L145.56 134.509L304.366 134.509L1.25083e-06 193.668" stroke="url(#paint10_linear_2_1406)"/>
<path d="M414 87.7098L145.56 139.697L304.366 139.697L-8.97502e-07 198.857" stroke="url(#paint11_linear_2_1406)"/>
<path d="M414 92.8987L145.56 144.886L304.366 144.886L6.24657e-06 204.046" stroke="url(#paint12_linear_2_1406)"/>
<path d="M414 98.0877L145.56 150.075L304.366 150.075L6.4796e-06 209.235" stroke="url(#paint13_linear_2_1406)"/>
<path d="M414 103.277L145.56 155.264L304.366 155.264L6.24657e-06 214.424" stroke="url(#paint14_linear_2_1406)"/>
<path d="M414 108.466L145.56 160.453L304.366 160.453L2.64899e-06 219.613" stroke="url(#paint15_linear_2_1406)"/>
<path d="M414 113.655L145.56 165.642L304.366 165.642L2.41596e-06 224.802" stroke="url(#paint16_linear_2_1406)"/>
<path d="M414 118.843L145.56 170.831L304.366 170.831L4.09824e-06 229.991" stroke="url(#paint17_linear_2_1406)"/>
<path d="M414 124.032L145.56 176.02L304.366 176.02L1.25083e-06 235.18" stroke="url(#paint18_linear_2_1406)"/>
<path d="M414 129.221L145.56 181.209L304.366 181.209L4.09824e-06 240.369" stroke="url(#paint19_linear_2_1406)"/>
<defs>
<linearGradient id="paint0_linear_2_1406" x1="220.081" y1="15.3157" x2="208.79" y2="158.269" gradientUnits="userSpaceOnUse">
<stop stop-color="#8B50F5"/>
<stop offset="0.416667" stop-color="#8B50F5" stop-opacity="0.270833"/>
<stop offset="1" stop-color="#8B50F5" stop-opacity="0"/>
</linearGradient>
<linearGradient id="paint1_linear_2_1406" x1="220.081" y1="20.5046" x2="208.79" y2="163.458" gradientUnits="userSpaceOnUse">
<stop stop-color="#8B50F5"/>
<stop offset="0.416667" stop-color="#8B50F5" stop-opacity="0.270833"/>
<stop offset="1" stop-color="#8B50F5" stop-opacity="0"/>
</linearGradient>
<linearGradient id="paint2_linear_2_1406" x1="220.081" y1="25.6936" x2="208.79" y2="168.647" gradientUnits="userSpaceOnUse">
<stop stop-color="#8B50F5"/>
<stop offset="0.416667" stop-color="#8B50F5" stop-opacity="0.270833"/>
<stop offset="1" stop-color="#8B50F5" stop-opacity="0"/>
</linearGradient>
<linearGradient id="paint3_linear_2_1406" x1="220.081" y1="30.8825" x2="208.79" y2="173.836" gradientUnits="userSpaceOnUse">
<stop stop-color="#8B50F5"/>
<stop offset="0.416667" stop-color="#8B50F5" stop-opacity="0.270833"/>
<stop offset="1" stop-color="#8B50F5" stop-opacity="0"/>
</linearGradient>
<linearGradient id="paint4_linear_2_1406" x1="220.081" y1="36.0715" x2="208.79" y2="179.025" gradientUnits="userSpaceOnUse">
<stop stop-color="#8B50F5"/>
<stop offset="0.416667" stop-color="#8B50F5" stop-opacity="0.270833"/>
<stop offset="1" stop-color="#8B50F5" stop-opacity="0"/>
</linearGradient>
<linearGradient id="paint5_linear_2_1406" x1="220.081" y1="41.2604" x2="208.79" y2="184.214" gradientUnits="userSpaceOnUse">
<stop stop-color="#8B50F5"/>
<stop offset="0.416667" stop-color="#8B50F5" stop-opacity="0.270833"/>
<stop offset="1" stop-color="#8B50F5" stop-opacity="0"/>
</linearGradient>
<linearGradient id="paint6_linear_2_1406" x1="220.081" y1="46.4494" x2="208.79" y2="189.403" gradientUnits="userSpaceOnUse">
<stop stop-color="#8B50F5"/>
<stop offset="0.416667" stop-color="#8B50F5" stop-opacity="0.270833"/>
<stop offset="1" stop-color="#8B50F5" stop-opacity="0"/>
</linearGradient>
<linearGradient id="paint7_linear_2_1406" x1="220.081" y1="51.6383" x2="208.79" y2="194.591" gradientUnits="userSpaceOnUse">
<stop stop-color="#8B50F5"/>
<stop offset="0.416667" stop-color="#8B50F5" stop-opacity="0.270833"/>
<stop offset="1" stop-color="#8B50F5" stop-opacity="0"/>
</linearGradient>
<linearGradient id="paint8_linear_2_1406" x1="220.081" y1="56.8273" x2="208.79" y2="199.78" gradientUnits="userSpaceOnUse">
<stop stop-color="#8B50F5"/>
<stop offset="0.416667" stop-color="#8B50F5" stop-opacity="0.270833"/>
<stop offset="1" stop-color="#8B50F5" stop-opacity="0"/>
</linearGradient>
<linearGradient id="paint9_linear_2_1406" x1="220.081" y1="62.0162" x2="208.79" y2="204.969" gradientUnits="userSpaceOnUse">
<stop stop-color="#8B50F5"/>
<stop offset="0.416667" stop-color="#8B50F5" stop-opacity="0.270833"/>
<stop offset="1" stop-color="#8B50F5" stop-opacity="0"/>
</linearGradient>
<linearGradient id="paint10_linear_2_1406" x1="220.081" y1="67.2052" x2="208.79" y2="210.158" gradientUnits="userSpaceOnUse">
<stop stop-color="#8B50F5"/>
<stop offset="0.416667" stop-color="#8B50F5" stop-opacity="0.270833"/>
<stop offset="1" stop-color="#8B50F5" stop-opacity="0"/>
</linearGradient>
<linearGradient id="paint11_linear_2_1406" x1="220.081" y1="72.3941" x2="208.79" y2="215.347" gradientUnits="userSpaceOnUse">
<stop stop-color="#8B50F5"/>
<stop offset="0.416667" stop-color="#8B50F5" stop-opacity="0.270833"/>
<stop offset="1" stop-color="#8B50F5" stop-opacity="0"/>
</linearGradient>
<linearGradient id="paint12_linear_2_1406" x1="220.081" y1="77.5831" x2="208.79" y2="220.536" gradientUnits="userSpaceOnUse">
<stop stop-color="#8B50F5"/>
<stop offset="0.416667" stop-color="#8B50F5" stop-opacity="0.270833"/>
<stop offset="1" stop-color="#8B50F5" stop-opacity="0"/>
</linearGradient>
<linearGradient id="paint13_linear_2_1406" x1="220.081" y1="82.772" x2="208.79" y2="225.725" gradientUnits="userSpaceOnUse">
<stop stop-color="#8B50F5"/>
<stop offset="0.416667" stop-color="#8B50F5" stop-opacity="0.270833"/>
<stop offset="1" stop-color="#8B50F5" stop-opacity="0"/>
</linearGradient>
<linearGradient id="paint14_linear_2_1406" x1="220.081" y1="87.961" x2="208.79" y2="230.914" gradientUnits="userSpaceOnUse">
<stop stop-color="#8B50F5"/>
<stop offset="0.416667" stop-color="#8B50F5" stop-opacity="0.270833"/>
<stop offset="1" stop-color="#8B50F5" stop-opacity="0"/>
</linearGradient>
<linearGradient id="paint15_linear_2_1406" x1="220.081" y1="93.1499" x2="208.79" y2="236.103" gradientUnits="userSpaceOnUse">
<stop stop-color="#8B50F5"/>
<stop offset="0.416667" stop-color="#8B50F5" stop-opacity="0.270833"/>
<stop offset="1" stop-color="#8B50F5" stop-opacity="0"/>
</linearGradient>
<linearGradient id="paint16_linear_2_1406" x1="220.081" y1="98.3388" x2="208.79" y2="241.292" gradientUnits="userSpaceOnUse">
<stop stop-color="#8B50F5"/>
<stop offset="0.416667" stop-color="#8B50F5" stop-opacity="0.270833"/>
<stop offset="1" stop-color="#8B50F5" stop-opacity="0"/>
</linearGradient>
<linearGradient id="paint17_linear_2_1406" x1="220.081" y1="103.528" x2="208.79" y2="246.481" gradientUnits="userSpaceOnUse">
<stop stop-color="#8B50F5"/>
<stop offset="0.416667" stop-color="#8B50F5" stop-opacity="0.270833"/>
<stop offset="1" stop-color="#8B50F5" stop-opacity="0"/>
</linearGradient>
<linearGradient id="paint18_linear_2_1406" x1="220.081" y1="108.717" x2="208.79" y2="251.67" gradientUnits="userSpaceOnUse">
<stop stop-color="#8B50F5"/>
<stop offset="0.416667" stop-color="#8B50F5" stop-opacity="0.270833"/>
<stop offset="1" stop-color="#8B50F5" stop-opacity="0"/>
</linearGradient>
<linearGradient id="paint19_linear_2_1406" x1="220.081" y1="113.906" x2="208.79" y2="256.859" gradientUnits="userSpaceOnUse">
<stop stop-color="#8B50F5"/>
<stop offset="0.416667" stop-color="#8B50F5" stop-opacity="0.270833"/>
<stop offset="1" stop-color="#8B50F5" stop-opacity="0"/>
</linearGradient>
</defs>
</svg>
