<svg width="26" height="26" viewBox="0 0 26 26" fill="none" xmlns="http://www.w3.org/2000/svg">
<path fill-rule="evenodd" clip-rule="evenodd" d="M19.2496 9.08028H23.8333C23.8333 5.39998 21.6282 3.25 17.8919 3.25H8.10815C4.37186 3.25 2.16667 5.39998 2.16667 9.03334V16.9667C2.16667 20.6 4.37186 22.75 8.10815 22.75H17.8919C21.6282 22.75 23.8333 20.6 23.8333 16.9667V16.6287H19.2496C17.1223 16.6287 15.3978 14.9473 15.3978 12.8733C15.3978 10.7992 17.1223 9.11784 19.2496 9.11784V9.08028ZM19.2496 10.6951H23.0245C23.4712 10.6951 23.8333 11.0482 23.8333 11.4838V14.2252C23.8281 14.6586 23.469 15.0088 23.0245 15.0138H19.3363C18.2593 15.028 17.3176 14.3091 17.0733 13.2864C16.951 12.6515 17.1227 11.9964 17.5425 11.4966C17.9623 10.9968 18.5871 10.7034 19.2496 10.6951ZM19.4133 13.5774H19.7696C20.227 13.5774 20.5978 13.2159 20.5978 12.77C20.5978 12.3241 20.227 11.9626 19.7696 11.9626H19.4133C19.1946 11.9601 18.9839 12.043 18.8283 12.193C18.6727 12.3429 18.5852 12.5473 18.5852 12.7606C18.5852 13.2081 18.9544 13.5723 19.4133 13.5774ZM7.29926 9.08028H13.4141C13.8715 9.08028 14.2422 8.71879 14.2422 8.27287C14.2422 7.82695 13.8715 7.46545 13.4141 7.46545H7.29926C6.84562 7.46542 6.47639 7.82123 6.47112 8.26348C6.47109 8.71095 6.84034 9.07514 7.29926 9.08028Z" fill="#8B50F5"/>
</svg>
